<?xml version="1.0" encoding="UTF-8" standalone="no"?>
<!DOCTYPE svg PUBLIC "-//W3C//DTD SVG 1.1//EN" "http://www.w3.org/Graphics/SVG/1.1/DTD/svg11.dtd">
<svg width="100%" height="100%" viewBox="0 0 512 200" version="1.1" xmlns="http://www.w3.org/2000/svg" xmlns:xlink="http://www.w3.org/1999/xlink" xml:space="preserve" xmlns:serif="http://www.serif.com/" style="fill-rule:evenodd;clip-rule:evenodd;stroke-linejoin:round;stroke-miterlimit:2;">
    <g transform="matrix(1.33712,0,0,1.33712,-278.685,-426.424)">
        <g id="subheading" transform="matrix(1,0,0,1,1.1909,27.952)">
            <g transform="matrix(1,0,0,1,253.665,397.591)">
                <path d="M0,2.514C0,0.412 -0.544,-1.319 -1.634,-2.681C-2.402,-3.637 -3.247,-4.301 -4.168,-4.672C-5.125,-5.055 -6.068,-5.248 -6.996,-5.248C-7.388,-5.248 -7.66,-5.23 -7.813,-5.195C-7.967,-5.16 -8.044,-5.02 -8.044,-4.776C-8.044,-4.672 -8.048,-3.808 -8.055,-2.189C-8.062,-0.569 -8.064,0.35 -8.064,0.566L-8.064,4.808C-8.064,6.623 -7.953,7.552 -7.729,7.594C-7.178,7.699 -6.239,7.751 -4.912,7.751C-3.445,7.751 -2.318,7.37 -1.529,6.61C-0.51,5.639 0,4.274 0,2.514M1.456,1.1C1.456,3.998 0.489,6.093 -1.445,7.385C-2.144,7.853 -2.943,8.16 -3.844,8.307C-4.374,8.39 -5.174,8.432 -6.242,8.432C-6.738,8.432 -7.383,8.414 -8.175,8.38C-8.968,8.345 -9.626,8.327 -10.149,8.327L-11.312,8.327C-11.382,8.327 -11.417,8.292 -11.417,8.223C-11.417,8.201 -11.42,8.152 -11.427,8.071C-11.435,7.991 -11.438,7.926 -11.438,7.877C-11.438,7.807 -11.396,7.773 -11.312,7.773L-9.846,7.773C-9.734,7.773 -9.678,7.664 -9.678,7.448C-9.678,7.343 -9.688,6.423 -9.709,4.688C-9.73,2.952 -9.741,2.008 -9.741,1.855L-9.73,-0.722C-9.717,-2.245 -9.713,-3.083 -9.72,-3.236C-9.762,-4.654 -9.891,-5.363 -10.107,-5.363L-11.584,-5.363C-11.661,-5.363 -11.699,-5.397 -11.699,-5.467L-11.699,-5.813C-11.699,-5.882 -11.654,-5.918 -11.563,-5.918L-5.09,-5.918C-4.015,-5.918 -3.163,-5.782 -2.534,-5.509C-2.115,-5.328 -1.809,-5.177 -1.612,-5.058C-1.173,-4.8 -0.743,-4.465 -0.324,-4.053C0.862,-2.866 1.456,-1.148 1.456,1.1" style="fill-rule:nonzero;"/>
            </g>
            <g transform="matrix(1,0,0,1,270.715,393.13)">
                <path d="M0,11.291C-0.196,11.689 -0.43,12.146 -0.702,12.663C-0.758,12.747 -0.831,12.789 -0.922,12.789L-10.831,12.789C-10.9,12.789 -10.936,12.747 -10.936,12.663L-10.936,12.339C-10.936,12.269 -10.907,12.234 -10.852,12.234L-9.302,12.234C-9.162,12.234 -9.092,12.16 -9.092,12.014C-9.092,11.951 -9.099,10.878 -9.113,8.793C-9.127,6.709 -9.134,5.634 -9.134,5.567C-9.134,5.501 -9.138,4.781 -9.145,3.409C-9.151,2.037 -9.155,1.31 -9.155,1.226C-9.155,-0.192 -9.291,-0.901 -9.563,-0.901L-10.831,-0.901C-10.9,-0.901 -10.936,-0.936 -10.936,-1.006L-10.936,-1.352C-10.936,-1.421 -10.894,-1.456 -10.81,-1.456L-1.436,-1.456C-1.31,-1.456 -1.141,-1.463 -0.928,-1.477C-0.714,-1.491 -0.611,-1.498 -0.618,-1.498C-0.527,-1.498 -0.492,-1.463 -0.514,-1.394C-0.611,-1.009 -0.733,-0.565 -0.88,-0.063C-0.937,0.098 -0.992,0.178 -1.048,0.178L-1.194,0.02C-1.453,-0.23 -1.861,-0.408 -2.42,-0.514C-3.202,-0.653 -4.86,-0.736 -7.396,-0.765C-7.479,-0.765 -7.536,-0.723 -7.568,-0.639C-7.6,-0.556 -7.615,1.177 -7.615,4.557C-7.615,4.696 -7.556,4.766 -7.437,4.766L-2.315,4.766C-2.218,4.766 -2.16,4.713 -2.143,4.608C-2.125,4.504 -2.097,4.28 -2.059,3.938C-2.021,3.597 -1.997,3.407 -1.99,3.373C-1.99,3.24 -1.948,3.174 -1.864,3.174L-1.708,3.174C-1.624,3.174 -1.582,3.233 -1.582,3.352C-1.582,3.38 -1.596,3.671 -1.624,4.227C-1.651,4.781 -1.666,5.111 -1.666,5.216C-1.666,5.321 -1.659,5.687 -1.645,6.316C-1.631,6.944 -1.624,7.279 -1.624,7.321C-1.624,7.476 -1.662,7.552 -1.739,7.552L-1.906,7.552C-1.977,7.552 -2.019,7.503 -2.032,7.405C-2.061,6.958 -2.095,6.428 -2.137,5.813C-2.158,5.674 -2.225,5.604 -2.336,5.604C-2.398,5.604 -3.26,5.59 -4.918,5.562C-6.576,5.534 -7.423,5.52 -7.458,5.52C-7.549,5.52 -7.594,5.583 -7.594,5.708L-7.594,9.657C-7.594,11.333 -7.413,12.171 -7.05,12.171C-3.781,12.171 -1.61,11.92 -0.534,11.417C-0.276,11.27 -0.119,11.183 -0.063,11.155C0.007,11.155 0.027,11.2 0,11.291" style="fill-rule:nonzero;"/>
            </g>
            <g transform="matrix(1,0,0,1,288.079,405.679)">
                <path d="M0,-13.555C0,-13.485 -0.021,-13.451 -0.063,-13.451L-0.733,-13.451C-0.859,-13.451 -0.957,-13.398 -1.026,-13.293C-1.746,-11.492 -2.549,-9.497 -3.436,-7.312C-4.211,-5.392 -5.195,-2.969 -6.39,-0.043C-6.529,0.285 -6.638,0.45 -6.715,0.45C-6.806,0.45 -6.899,0.331 -6.997,0.093C-8.422,-3.475 -9.406,-5.87 -9.951,-7.092C-10.335,-8.021 -10.719,-8.946 -11.104,-9.867C-11.773,-11.46 -12.29,-12.532 -12.653,-13.083C-12.849,-13.327 -13.045,-13.451 -13.24,-13.451L-13.596,-13.451C-13.659,-13.451 -13.697,-13.46 -13.711,-13.482C-13.726,-13.502 -13.732,-13.527 -13.732,-13.555L-13.732,-13.901C-13.732,-13.97 -13.697,-14.005 -13.627,-14.005L-9.05,-14.005C-8.967,-14.005 -8.925,-13.977 -8.925,-13.921L-8.925,-13.576C-8.925,-13.492 -8.952,-13.451 -9.008,-13.451L-10.297,-13.451C-10.472,-13.451 -10.559,-13.363 -10.559,-13.188C-10.559,-13.063 -10.521,-12.899 -10.443,-12.696C-9.801,-11.139 -9.116,-9.48 -8.391,-7.721C-7.105,-4.452 -6.403,-2.7 -6.285,-2.462C-6.229,-2.316 -6.177,-2.242 -6.128,-2.242C-6.086,-2.242 -6.037,-2.287 -5.981,-2.378C-5.849,-2.602 -5.443,-3.586 -4.767,-5.332C-4.424,-6.233 -4.078,-7.137 -3.729,-8.045C-3.681,-8.15 -3.457,-8.742 -3.059,-9.821C-2.661,-10.9 -2.434,-11.523 -2.378,-11.691C-2.21,-12.235 -2.127,-12.686 -2.127,-13.041C-2.127,-13.314 -2.235,-13.451 -2.451,-13.451L-3.624,-13.451C-3.723,-13.451 -3.771,-13.485 -3.771,-13.555L-3.771,-13.901C-3.771,-13.97 -3.743,-14.005 -3.688,-14.005L-0.105,-14.005C-0.035,-14.005 0,-13.977 0,-13.921L0,-13.555Z" style="fill-rule:nonzero;"/>
            </g>
            <g transform="matrix(1,0,0,1,303.117,393.13)">
                <path d="M0,11.291C-0.196,11.689 -0.43,12.146 -0.702,12.663C-0.758,12.747 -0.831,12.789 -0.922,12.789L-10.831,12.789C-10.9,12.789 -10.936,12.747 -10.936,12.663L-10.936,12.339C-10.936,12.269 -10.907,12.234 -10.852,12.234L-9.302,12.234C-9.162,12.234 -9.092,12.16 -9.092,12.014C-9.092,11.951 -9.099,10.878 -9.113,8.793C-9.127,6.709 -9.134,5.634 -9.134,5.567C-9.134,5.501 -9.138,4.781 -9.145,3.409C-9.151,2.037 -9.155,1.31 -9.155,1.226C-9.155,-0.192 -9.291,-0.901 -9.563,-0.901L-10.831,-0.901C-10.9,-0.901 -10.936,-0.936 -10.936,-1.006L-10.936,-1.352C-10.936,-1.421 -10.894,-1.456 -10.81,-1.456L-1.436,-1.456C-1.31,-1.456 -1.141,-1.463 -0.928,-1.477C-0.714,-1.491 -0.611,-1.498 -0.618,-1.498C-0.527,-1.498 -0.492,-1.463 -0.514,-1.394C-0.611,-1.009 -0.733,-0.565 -0.88,-0.063C-0.937,0.098 -0.992,0.178 -1.048,0.178L-1.194,0.02C-1.453,-0.23 -1.861,-0.408 -2.42,-0.514C-3.202,-0.653 -4.86,-0.736 -7.396,-0.765C-7.479,-0.765 -7.536,-0.723 -7.568,-0.639C-7.6,-0.556 -7.615,1.177 -7.615,4.557C-7.615,4.696 -7.556,4.766 -7.437,4.766L-2.315,4.766C-2.218,4.766 -2.16,4.713 -2.143,4.608C-2.125,4.504 -2.097,4.28 -2.059,3.938C-2.021,3.597 -1.997,3.407 -1.99,3.373C-1.99,3.24 -1.948,3.174 -1.864,3.174L-1.708,3.174C-1.624,3.174 -1.582,3.233 -1.582,3.352C-1.582,3.38 -1.596,3.671 -1.624,4.227C-1.651,4.781 -1.666,5.111 -1.666,5.216C-1.666,5.321 -1.659,5.687 -1.645,6.316C-1.631,6.944 -1.624,7.279 -1.624,7.321C-1.624,7.476 -1.662,7.552 -1.739,7.552L-1.906,7.552C-1.977,7.552 -2.019,7.503 -2.032,7.405C-2.061,6.958 -2.095,6.428 -2.137,5.813C-2.158,5.674 -2.225,5.604 -2.336,5.604C-2.398,5.604 -3.26,5.59 -4.918,5.562C-6.576,5.534 -7.423,5.52 -7.458,5.52C-7.549,5.52 -7.594,5.583 -7.594,5.708L-7.594,9.657C-7.594,11.333 -7.413,12.171 -7.05,12.171C-3.781,12.171 -1.61,11.92 -0.534,11.417C-0.276,11.27 -0.119,11.183 -0.063,11.155C0.007,11.155 0.027,11.2 0,11.291" style="fill-rule:nonzero;"/>
            </g>
            <g transform="matrix(1,0,0,1,318.438,393.15)">
                <path d="M0,11.292C0,11.354 -0.111,11.574 -0.335,11.951C-0.391,12.099 -0.513,12.329 -0.701,12.643C-0.758,12.727 -0.816,12.769 -0.88,12.769L-10.852,12.769C-10.935,12.769 -10.977,12.733 -10.977,12.664L-10.977,12.318C-10.977,12.248 -10.942,12.214 -10.872,12.214L-9.301,12.214C-9.176,12.214 -9.112,12.14 -9.112,11.993C-9.112,11.931 -9.123,11.508 -9.144,10.726C-9.165,9.944 -9.161,8.212 -9.134,5.531C-9.105,2.85 -9.092,1.442 -9.092,1.31C-9.092,-0.178 -9.228,-0.922 -9.5,-0.922L-10.684,-0.922C-10.781,-0.922 -10.83,-0.963 -10.83,-1.047L-10.83,-1.351C-10.83,-1.435 -10.788,-1.477 -10.705,-1.477L-5.038,-1.477C-4.969,-1.477 -4.934,-1.448 -4.934,-1.393L-4.934,-1.026C-4.934,-0.956 -4.961,-0.922 -5.017,-0.922L-7.122,-0.922C-7.228,-0.922 -7.29,-0.872 -7.311,-0.774C-7.332,-0.677 -7.367,1.026 -7.416,4.337C-7.458,7.451 -7.479,9.225 -7.479,9.657C-7.479,11.271 -7.294,12.077 -6.924,12.077C-4.668,12.077 -3.373,12.063 -3.037,12.035C-1.948,11.944 -1.072,11.696 -0.408,11.292C-0.241,11.187 -0.14,11.135 -0.104,11.135C-0.035,11.184 0,11.236 0,11.292" style="fill-rule:nonzero;"/>
            </g>
            <g transform="matrix(1,0,0,1,334.461,398.556)">
                <path d="M0,0.503C0,-0.503 -0.115,-1.383 -0.346,-2.137C-0.604,-3.01 -1.017,-3.768 -1.582,-4.41C-2.099,-4.996 -2.713,-5.439 -3.426,-5.74C-4.25,-6.082 -5.073,-6.253 -5.897,-6.253C-6.966,-6.253 -7.737,-6.082 -8.212,-5.74C-9.078,-5.126 -9.672,-4.448 -9.993,-3.708C-10.426,-2.73 -10.643,-1.536 -10.643,-0.126C-10.643,1.955 -10.255,3.593 -9.479,4.786C-9.012,5.513 -8.311,6.093 -7.374,6.525C-6.642,6.867 -5.842,7.039 -4.976,7.039C-3.998,7.039 -3.098,6.767 -2.273,6.222C-1.631,5.803 -1.079,5.083 -0.618,4.064C-0.206,3.135 0,1.948 0,0.503M1.654,-0.063C1.654,2.144 1.124,3.868 0.062,5.111C-0.308,5.551 -0.615,5.869 -0.859,6.065C-1.369,6.47 -2.032,6.822 -2.85,7.122C-3.506,7.367 -4.357,7.489 -5.405,7.489C-7.074,7.489 -8.331,7.276 -9.176,6.85C-9.791,6.543 -10.308,6.149 -10.727,5.666C-11.243,5.08 -11.613,4.434 -11.837,3.729C-12.108,2.884 -12.245,1.77 -12.245,0.388C-12.245,-0.556 -12.116,-1.449 -11.857,-2.294C-11.55,-3.293 -11.093,-4.134 -10.485,-4.818C-9.878,-5.503 -9.005,-6.068 -7.866,-6.516C-7.063,-6.829 -6.17,-6.986 -5.186,-6.986C-3.691,-6.986 -2.55,-6.809 -1.76,-6.452C-0.873,-6.055 -0.179,-5.51 0.324,-4.818C1.211,-3.61 1.654,-2.025 1.654,-0.063" style="fill-rule:nonzero;"/>
            </g>
            <g transform="matrix(1,0,0,1,349.551,401.583)">
                <path d="M0,-5.489C0,-6.418 -0.346,-7.224 -1.037,-7.908C-1.848,-8.725 -2.982,-9.134 -4.441,-9.134C-4.847,-9.134 -5.077,-9.127 -5.133,-9.113C-5.188,-9.098 -5.224,-9.029 -5.237,-8.903C-5.279,-8.533 -5.301,-7.458 -5.301,-5.677C-5.301,-5.614 -5.304,-5.12 -5.311,-4.195C-5.317,-3.27 -5.321,-2.786 -5.321,-2.745C-5.321,-2.654 -5.272,-2.588 -5.175,-2.546C-4.728,-2.378 -4.058,-2.294 -3.164,-2.294C-2.116,-2.294 -1.341,-2.546 -0.838,-3.049C-0.279,-3.599 0,-4.413 0,-5.489M1.645,-5.635C1.645,-4.574 1.281,-3.659 0.555,-2.891C-0.206,-2.088 -1.331,-1.686 -2.818,-1.686C-3.509,-1.686 -4.315,-1.808 -5.237,-2.053C-5.294,-2.067 -5.321,-2.046 -5.321,-1.99L-5.321,1.414C-5.321,3.006 -5.179,3.802 -4.892,3.802L-3.007,3.802C-2.923,3.802 -2.881,3.844 -2.881,3.928L-2.881,4.21C-2.881,4.294 -2.901,4.336 -2.943,4.336L-8.589,4.336C-8.646,4.336 -8.673,4.309 -8.673,4.252L-8.673,3.928C-8.673,3.844 -8.639,3.802 -8.568,3.802L-7.123,3.802C-7.012,3.802 -6.955,3.715 -6.955,3.54L-6.955,-7.249C-6.955,-8.548 -7.043,-9.197 -7.217,-9.197L-8.652,-9.197C-8.75,-9.197 -8.799,-9.224 -8.799,-9.28L-8.799,-9.647C-8.799,-9.723 -8.757,-9.762 -8.673,-9.762L-6.055,-9.762C-5.936,-9.762 -5.474,-9.773 -4.667,-9.794C-3.86,-9.814 -3.436,-9.825 -3.394,-9.825C-2.626,-9.825 -1.997,-9.773 -1.509,-9.668C-0.706,-9.508 -0.004,-9.116 0.597,-8.495C1.295,-7.768 1.645,-6.815 1.645,-5.635" style="fill-rule:nonzero;"/>
            </g>
            <g transform="matrix(1,0,0,1,373.461,392.082)">
                <path d="M0,13.733C0,13.802 -0.035,13.837 -0.104,13.837L-4.892,13.837C-4.989,13.837 -5.038,13.802 -5.038,13.733L-5.038,13.387C-5.038,13.317 -5.003,13.283 -4.934,13.283L-3.802,13.283C-3.628,13.283 -3.54,13.195 -3.54,13.02L-3.54,7.658C-3.54,4.899 -3.568,3.056 -3.624,2.128C-3.638,1.924 -3.673,1.824 -3.729,1.824C-3.771,1.824 -3.823,1.89 -3.886,2.022C-4.032,2.323 -5.446,5.532 -8.128,11.648C-8.533,12.556 -8.854,13.328 -9.092,13.963C-9.161,14.082 -9.221,14.141 -9.27,14.141C-9.367,14.141 -9.431,14.088 -9.458,13.984C-10.422,12.015 -11.417,9.972 -12.443,7.857C-13.016,6.614 -13.809,4.969 -14.821,2.923C-14.884,2.804 -14.939,2.745 -14.988,2.745C-15.045,2.745 -15.076,2.819 -15.083,2.965C-15.271,5.752 -15.365,7.787 -15.365,9.072L-15.365,11.439C-15.365,12.668 -15.198,13.283 -14.863,13.283L-13.627,13.283C-13.55,13.283 -13.512,13.31 -13.512,13.366L-13.512,13.733C-13.512,13.802 -13.536,13.837 -13.585,13.837L-17.377,13.837C-17.461,13.837 -17.503,13.81 -17.503,13.754L-17.503,13.429C-17.503,13.332 -17.468,13.283 -17.397,13.283L-16.309,13.283C-16.12,13.283 -16.025,13.126 -16.025,12.811C-16.025,11.721 -15.977,9.724 -15.879,6.82C-15.844,6.275 -15.813,5.727 -15.785,5.175C-15.729,4.093 -15.701,3.161 -15.701,2.379C-15.701,1.359 -16.054,0.674 -16.759,0.326C-16.912,0.249 -17.227,0.189 -17.701,0.147C-17.758,0.147 -17.785,0.12 -17.785,0.064L-17.785,-0.324C-17.785,-0.379 -17.758,-0.408 -17.701,-0.408L-14.937,-0.408C-14.811,-0.408 -14.724,-0.359 -14.675,-0.261C-14.025,1.024 -13.323,2.42 -12.569,3.928C-11.466,6.303 -10.271,8.806 -8.987,11.439C-8.868,11.614 -8.777,11.641 -8.715,11.523C-7.933,9.742 -7.095,7.853 -6.2,5.856C-5.335,3.859 -4.448,1.837 -3.54,-0.208C-3.471,-0.341 -3.362,-0.408 -3.216,-0.408L-0.534,-0.408C-0.464,-0.408 -0.43,-0.379 -0.43,-0.324L-0.43,0.043C-0.43,0.113 -0.45,0.147 -0.492,0.147L-1.529,0.147C-1.738,0.147 -1.864,0.385 -1.906,0.86C-1.955,1.307 -1.979,3.059 -1.979,6.118C-1.979,8.367 -1.955,9.976 -1.906,10.947C-1.837,12.504 -1.631,13.283 -1.288,13.283L-0.084,13.283C-0.028,13.283 0,13.317 0,13.387L0,13.733Z" style="fill-rule:nonzero;"/>
            </g>
            <g transform="matrix(1,0,0,1,388.992,393.13)">
                <path d="M0,11.291C-0.196,11.689 -0.43,12.146 -0.702,12.663C-0.758,12.747 -0.831,12.789 -0.922,12.789L-10.831,12.789C-10.9,12.789 -10.936,12.747 -10.936,12.663L-10.936,12.339C-10.936,12.269 -10.907,12.234 -10.852,12.234L-9.302,12.234C-9.162,12.234 -9.092,12.16 -9.092,12.014C-9.092,11.951 -9.099,10.878 -9.113,8.793C-9.127,6.709 -9.134,5.634 -9.134,5.567C-9.134,5.501 -9.138,4.781 -9.145,3.409C-9.151,2.037 -9.155,1.31 -9.155,1.226C-9.155,-0.192 -9.291,-0.901 -9.563,-0.901L-10.831,-0.901C-10.9,-0.901 -10.936,-0.936 -10.936,-1.006L-10.936,-1.352C-10.936,-1.421 -10.894,-1.456 -10.81,-1.456L-1.436,-1.456C-1.31,-1.456 -1.141,-1.463 -0.928,-1.477C-0.714,-1.491 -0.611,-1.498 -0.618,-1.498C-0.527,-1.498 -0.492,-1.463 -0.514,-1.394C-0.611,-1.009 -0.733,-0.565 -0.88,-0.063C-0.937,0.098 -0.992,0.178 -1.048,0.178L-1.194,0.02C-1.453,-0.23 -1.861,-0.408 -2.42,-0.514C-3.202,-0.653 -4.86,-0.736 -7.396,-0.765C-7.479,-0.765 -7.536,-0.723 -7.568,-0.639C-7.6,-0.556 -7.615,1.177 -7.615,4.557C-7.615,4.696 -7.556,4.766 -7.437,4.766L-2.315,4.766C-2.218,4.766 -2.16,4.713 -2.143,4.608C-2.125,4.504 -2.097,4.28 -2.059,3.938C-2.021,3.597 -1.997,3.407 -1.99,3.373C-1.99,3.24 -1.948,3.174 -1.864,3.174L-1.708,3.174C-1.624,3.174 -1.582,3.233 -1.582,3.352C-1.582,3.38 -1.596,3.671 -1.624,4.227C-1.651,4.781 -1.666,5.111 -1.666,5.216C-1.666,5.321 -1.659,5.687 -1.645,6.316C-1.631,6.944 -1.624,7.279 -1.624,7.321C-1.624,7.476 -1.662,7.552 -1.739,7.552L-1.906,7.552C-1.977,7.552 -2.019,7.503 -2.032,7.405C-2.061,6.958 -2.095,6.428 -2.137,5.813C-2.158,5.674 -2.225,5.604 -2.336,5.604C-2.398,5.604 -3.26,5.59 -4.918,5.562C-6.576,5.534 -7.423,5.52 -7.458,5.52C-7.549,5.52 -7.594,5.583 -7.594,5.708L-7.594,9.657C-7.594,11.333 -7.413,12.171 -7.05,12.171C-3.781,12.171 -1.61,11.92 -0.534,11.417C-0.276,11.27 -0.119,11.183 -0.063,11.155C0.007,11.155 0.027,11.2 0,11.291" style="fill-rule:nonzero;"/>
            </g>
            <g transform="matrix(1,0,0,1,408.199,405.877)">
                <path d="M0,-13.773C0,-13.689 -0.035,-13.648 -0.105,-13.648L-1.561,-13.648C-1.707,-13.648 -1.781,-13.553 -1.781,-13.365C-1.781,-13.309 -1.787,-12.357 -1.801,-10.51C-1.816,-8.664 -1.822,-7.665 -1.822,-7.515C-1.822,-7.365 -1.836,-6.117 -1.865,-3.77C-1.893,-1.424 -1.906,-0.188 -1.906,-0.062C-1.906,0.266 -1.949,0.43 -2.031,0.43C-2.131,0.43 -2.211,0.388 -2.273,0.304C-2.908,-0.547 -4.791,-2.967 -7.918,-6.955C-9.029,-8.442 -10.334,-10.1 -11.836,-11.929C-11.934,-12.013 -12,-11.986 -12.035,-11.846C-12.056,-11.755 -12.109,-10.474 -12.192,-8.002C-12.269,-5.502 -12.307,-3.934 -12.307,-3.299C-12.307,-1.441 -12.123,-0.512 -11.752,-0.512L-10.359,-0.512C-10.29,-0.512 -10.254,-0.485 -10.254,-0.429L-10.254,-0.042C-10.254,0.015 -10.283,0.042 -10.338,0.042L-14.455,0.042C-14.545,0.042 -14.591,0.022 -14.591,-0.02L-14.591,-0.408C-14.591,-0.478 -14.545,-0.512 -14.455,-0.512L-13.167,-0.512C-13.055,-0.512 -12.999,-0.565 -12.999,-0.669L-12.999,-2.21C-12.999,-2.622 -12.948,-4.294 -12.847,-7.227C-12.746,-10.16 -12.695,-11.654 -12.695,-11.71C-12.695,-13.002 -13.138,-13.648 -14.025,-13.648L-14.758,-13.648C-14.814,-13.648 -14.842,-13.682 -14.842,-13.752L-14.842,-14.098C-14.842,-14.168 -14.807,-14.203 -14.738,-14.203L-11.427,-14.203C-11.337,-14.203 -11.26,-14.147 -11.197,-14.035C-11.134,-13.923 -10.556,-13.136 -9.463,-11.673C-8.371,-10.21 -7.754,-9.395 -7.615,-9.227C-6.051,-7.146 -4.393,-5 -2.639,-2.786C-2.611,-2.764 -2.584,-2.754 -2.557,-2.754C-2.508,-2.754 -2.477,-2.852 -2.461,-3.047C-2.455,-3.18 -2.455,-4.416 -2.461,-6.755C-2.469,-9.102 -2.477,-10.369 -2.482,-10.557C-2.588,-12.618 -2.838,-13.648 -3.236,-13.648L-4.672,-13.648C-4.762,-13.648 -4.809,-13.682 -4.809,-13.752L-4.809,-14.098C-4.809,-14.168 -4.77,-14.203 -4.693,-14.203L-0.125,-14.203C-0.043,-14.203 0,-14.174 0,-14.119L0,-13.773Z" style="fill-rule:nonzero;"/>
            </g>
            <g transform="matrix(1,0,0,1,424.273,405.605)">
                <path d="M0,-13.785C-0.062,-13.345 -0.17,-12.835 -0.324,-12.256C-0.352,-12.158 -0.395,-12.109 -0.449,-12.109C-0.52,-12.109 -0.586,-12.165 -0.648,-12.276C-0.809,-12.591 -1.088,-12.793 -1.486,-12.884C-2.178,-13.038 -3.422,-13.114 -5.215,-13.114C-5.328,-13.114 -5.387,-13.069 -5.395,-12.978C-5.4,-12.888 -5.422,-11.261 -5.457,-8.098C-5.498,-5.059 -5.52,-3.436 -5.52,-3.226C-5.52,-1.236 -5.348,-0.241 -5.006,-0.241L-3.205,-0.241C-3.156,-0.241 -3.131,-0.214 -3.131,-0.158L-3.131,0.209C-3.131,0.278 -3.156,0.314 -3.205,0.314L-8.965,0.314C-9.043,0.314 -9.08,0.278 -9.08,0.209L-9.08,-0.137C-9.08,-0.207 -9.043,-0.241 -8.965,-0.241L-7.279,-0.241C-7.146,-0.241 -7.08,-0.332 -7.08,-0.514C-7.107,-1.98 -7.121,-2.783 -7.121,-2.923C-7.121,-3.042 -7.105,-4.22 -7.07,-6.458C-7.035,-8.696 -7.018,-9.864 -7.018,-9.962C-7.018,-12.063 -7.139,-13.114 -7.385,-13.114C-9.186,-13.114 -10.457,-13.014 -11.197,-12.81C-11.734,-12.671 -12.08,-12.479 -12.234,-12.234C-12.311,-12.109 -12.381,-12.046 -12.443,-12.046C-12.533,-12.046 -12.578,-12.074 -12.578,-12.13C-12.578,-12.207 -12.555,-12.298 -12.506,-12.402C-12.311,-13.107 -12.152,-13.631 -12.035,-13.973C-12.006,-14.064 -11.93,-14.099 -11.805,-14.078C-11.658,-14.057 -10.938,-14.015 -9.646,-13.952C-8.139,-13.883 -6.92,-13.847 -5.99,-13.847C-3.002,-13.847 -1.305,-13.854 -0.9,-13.869C-0.711,-13.876 -0.535,-13.891 -0.371,-13.916C-0.207,-13.94 -0.129,-13.952 -0.135,-13.952C-0.045,-13.952 0,-13.896 0,-13.785" style="fill-rule:nonzero;"/>
            </g>
            <g transform="matrix(1,0,0,1,449.145,397.979)">
                <path d="M0,2.022C0,1.122 -0.285,0.384 -0.859,-0.188C-1.529,-0.831 -2.328,-1.152 -3.258,-1.152C-4.018,-1.152 -4.576,-0.981 -4.934,-0.638C-5.316,-0.268 -5.51,0.259 -5.51,0.943C-5.51,1.711 -5.365,2.242 -5.08,2.536C-4.758,2.871 -4.197,3.341 -3.393,3.95C-2.535,4.598 -1.867,5.049 -1.393,5.3C-1.219,5.391 -1.082,5.377 -0.984,5.258C-0.328,4.462 0,3.383 0,2.022M-2.576,6.568C-2.514,6.512 -2.527,6.457 -2.619,6.4C-3.408,5.87 -4.137,5.353 -4.807,4.85C-5.596,4.256 -6.396,3.534 -7.205,2.682C-8.455,1.369 -9.426,0.182 -10.117,-0.879C-10.188,-0.977 -10.262,-1.005 -10.338,-0.963C-10.68,-0.782 -10.977,-0.464 -11.229,-0.01C-11.521,0.513 -11.668,1.083 -11.668,1.697C-11.668,2.186 -11.627,2.658 -11.543,3.111C-11.375,3.977 -10.945,4.755 -10.254,5.447C-9.479,6.222 -8.592,6.739 -7.594,6.998C-7.035,7.137 -6.299,7.207 -5.383,7.207C-3.986,7.207 -3.051,6.994 -2.576,6.568M4.211,5.447C4.211,5.552 4.152,5.741 4.033,6.012C3.74,6.711 3.254,7.311 2.576,7.814C2.326,7.996 2.004,8.086 1.613,8.086C1.307,8.086 0.879,8.008 0.33,7.851C-0.219,7.694 -0.887,7.375 -1.676,6.892C-1.801,6.809 -1.92,6.802 -2.031,6.872C-2.766,7.297 -3.25,7.556 -3.488,7.647C-4.277,7.926 -5.338,8.066 -6.672,8.066C-8.949,8.066 -10.6,7.567 -11.627,6.568C-12.514,5.702 -12.957,4.48 -12.957,2.902C-12.957,1.973 -12.746,1.1 -12.328,0.284C-12.119,-0.128 -11.824,-0.489 -11.447,-0.795C-11.162,-1.026 -10.869,-1.211 -10.568,-1.351C-10.498,-1.385 -10.51,-1.469 -10.6,-1.602C-10.754,-1.854 -10.887,-2.125 -10.998,-2.419C-11.186,-2.887 -11.281,-3.289 -11.281,-3.624C-11.281,-3.805 -11.18,-4.025 -10.977,-4.284C-10.426,-5.01 -9.74,-5.582 -8.924,-6.001C-8.84,-6.043 -8.662,-6.064 -8.389,-6.064C-8.09,-6.064 -7.691,-6.001 -7.195,-5.875C-6.658,-5.743 -6.281,-5.6 -6.064,-5.446C-5.932,-5.348 -5.869,-5.254 -5.875,-5.164C-5.896,-4.842 -5.984,-4.472 -6.137,-4.053C-6.236,-3.767 -6.299,-3.624 -6.326,-3.624C-6.354,-3.624 -6.424,-3.701 -6.535,-3.854C-6.668,-4.042 -6.885,-4.2 -7.186,-4.326C-7.877,-4.625 -8.605,-4.776 -9.375,-4.776C-9.988,-4.776 -10.295,-4.556 -10.295,-4.116C-10.295,-3.843 -10.166,-3.488 -9.908,-3.047C-9.672,-2.635 -9.164,-1.927 -8.389,-0.921C-7.447,0.293 -6.738,1.089 -6.264,1.467C-6.18,1.53 -6.117,1.554 -6.074,1.541C-6.039,1.526 -6.021,1.484 -6.021,1.415C-6.064,0.116 -5.736,-0.806 -5.037,-1.351C-4.521,-1.749 -3.805,-1.948 -2.891,-1.948C-2.283,-1.948 -1.512,-1.826 -0.576,-1.582C0.193,-1.385 0.992,-1.288 1.822,-1.288C2.313,-1.288 2.699,-1.385 2.986,-1.582C3.348,-1.839 3.529,-2.174 3.529,-2.586C3.529,-2.657 3.527,-2.723 3.52,-2.786C3.506,-2.897 3.52,-2.967 3.563,-2.996C3.645,-3.058 3.697,-3.096 3.719,-3.111C3.732,-3.124 3.76,-3.103 3.803,-3.047C3.914,-2.859 3.971,-2.593 3.971,-2.251C3.971,-1.616 3.848,-1.159 3.604,-0.879C3.135,-0.334 2.678,-0.062 2.232,-0.062C1.848,-0.062 1.111,-0.199 0.021,-0.471C-0.055,-0.492 -0.102,-0.489 -0.115,-0.46C-0.137,-0.432 -0.119,-0.376 -0.062,-0.292C0.385,0.377 0.607,1.115 0.607,1.918C0.607,3.334 0.213,4.55 -0.576,5.562C-0.631,5.626 -0.611,5.695 -0.514,5.772C-0.346,5.947 0.141,6.163 0.943,6.421C1.391,6.561 1.805,6.63 2.189,6.63C2.854,6.63 3.398,6.275 3.824,5.562C3.908,5.416 3.971,5.329 4.012,5.3C4.039,5.307 4.074,5.322 4.117,5.342C4.18,5.398 4.211,5.433 4.211,5.447" style="fill-rule:nonzero;"/>
            </g>
            <g transform="matrix(1,0,0,1,476.717,397.591)">
                <path d="M0,2.514C0,0.412 -0.543,-1.319 -1.633,-2.681C-2.402,-3.637 -3.246,-4.301 -4.168,-4.672C-5.125,-5.055 -6.068,-5.248 -6.996,-5.248C-7.387,-5.248 -7.66,-5.23 -7.812,-5.195C-7.967,-5.16 -8.043,-5.02 -8.043,-4.776C-8.043,-4.672 -8.047,-3.808 -8.055,-2.189C-8.061,-0.569 -8.064,0.35 -8.064,0.566L-8.064,4.808C-8.064,6.623 -7.953,7.552 -7.729,7.594C-7.178,7.699 -6.238,7.751 -4.912,7.751C-3.445,7.751 -2.318,7.37 -1.529,6.61C-0.51,5.639 0,4.274 0,2.514M1.457,1.1C1.457,3.998 0.49,6.093 -1.445,7.385C-2.143,7.853 -2.943,8.16 -3.844,8.307C-4.373,8.39 -5.174,8.432 -6.242,8.432C-6.738,8.432 -7.383,8.414 -8.174,8.38C-8.967,8.345 -9.625,8.327 -10.148,8.327L-11.311,8.327C-11.381,8.327 -11.416,8.292 -11.416,8.223C-11.416,8.201 -11.42,8.152 -11.426,8.071C-11.434,7.991 -11.438,7.926 -11.438,7.877C-11.438,7.807 -11.395,7.773 -11.311,7.773L-9.846,7.773C-9.734,7.773 -9.678,7.664 -9.678,7.448C-9.678,7.343 -9.688,6.423 -9.709,4.688C-9.73,2.952 -9.74,2.008 -9.74,1.855L-9.73,-0.722C-9.717,-2.245 -9.713,-3.083 -9.719,-3.236C-9.762,-4.654 -9.891,-5.363 -10.107,-5.363L-11.584,-5.363C-11.66,-5.363 -11.699,-5.397 -11.699,-5.467L-11.699,-5.813C-11.699,-5.882 -11.654,-5.918 -11.563,-5.918L-5.09,-5.918C-4.014,-5.918 -3.162,-5.782 -2.533,-5.509C-2.115,-5.328 -1.809,-5.177 -1.611,-5.058C-1.172,-4.8 -0.742,-4.465 -0.324,-4.053C0.863,-2.866 1.457,-1.148 1.457,1.1" style="fill-rule:nonzero;"/>
            </g>
            <g transform="matrix(1,0,0,1,493.768,393.13)">
                <path d="M0,11.291C-0.197,11.689 -0.43,12.146 -0.703,12.663C-0.758,12.747 -0.832,12.789 -0.922,12.789L-10.832,12.789C-10.9,12.789 -10.936,12.747 -10.936,12.663L-10.936,12.339C-10.936,12.269 -10.908,12.234 -10.852,12.234L-9.303,12.234C-9.162,12.234 -9.092,12.16 -9.092,12.014C-9.092,11.951 -9.1,10.878 -9.113,8.793C-9.127,6.709 -9.135,5.634 -9.135,5.567C-9.135,5.501 -9.139,4.781 -9.145,3.409C-9.152,2.037 -9.156,1.31 -9.156,1.226C-9.156,-0.192 -9.291,-0.901 -9.564,-0.901L-10.832,-0.901C-10.9,-0.901 -10.936,-0.936 -10.936,-1.006L-10.936,-1.352C-10.936,-1.421 -10.895,-1.456 -10.811,-1.456L-1.436,-1.456C-1.311,-1.456 -1.141,-1.463 -0.928,-1.477C-0.715,-1.491 -0.611,-1.498 -0.619,-1.498C-0.527,-1.498 -0.492,-1.463 -0.514,-1.394C-0.611,-1.009 -0.734,-0.565 -0.881,-0.063C-0.937,0.098 -0.992,0.178 -1.049,0.178L-1.195,0.02C-1.453,-0.23 -1.861,-0.408 -2.42,-0.514C-3.203,-0.653 -4.861,-0.736 -7.396,-0.765C-7.479,-0.765 -7.537,-0.723 -7.568,-0.639C-7.6,-0.556 -7.615,1.177 -7.615,4.557C-7.615,4.696 -7.557,4.766 -7.437,4.766L-2.316,4.766C-2.219,4.766 -2.16,4.713 -2.143,4.608C-2.125,4.504 -2.098,4.28 -2.059,3.938C-2.021,3.597 -1.998,3.407 -1.99,3.373C-1.99,3.24 -1.949,3.174 -1.865,3.174L-1.709,3.174C-1.625,3.174 -1.582,3.233 -1.582,3.352C-1.582,3.38 -1.596,3.671 -1.625,4.227C-1.652,4.781 -1.666,5.111 -1.666,5.216C-1.666,5.321 -1.66,5.687 -1.645,6.316C-1.631,6.944 -1.625,7.279 -1.625,7.321C-1.625,7.476 -1.662,7.552 -1.74,7.552L-1.906,7.552C-1.977,7.552 -2.02,7.503 -2.033,7.405C-2.061,6.958 -2.096,6.428 -2.137,5.813C-2.158,5.674 -2.225,5.604 -2.336,5.604C-2.398,5.604 -3.26,5.59 -4.918,5.562C-6.576,5.534 -7.424,5.52 -7.459,5.52C-7.549,5.52 -7.594,5.583 -7.594,5.708L-7.594,9.657C-7.594,11.333 -7.414,12.171 -7.051,12.171C-3.781,12.171 -1.611,11.92 -0.535,11.417C-0.277,11.27 -0.119,11.183 -0.064,11.155C0.006,11.155 0.027,11.2 0,11.291" style="fill-rule:nonzero;"/>
            </g>
            <g transform="matrix(1,0,0,1,506.877,395.643)">
                <path d="M0,6.348C0,7.507 -0.369,8.46 -1.109,9.207C-1.898,9.99 -3.045,10.38 -4.545,10.38C-6.305,10.38 -7.549,10.059 -8.273,9.416C-8.357,9.34 -8.4,9.197 -8.4,8.988C-8.4,8.939 -8.404,8.53 -8.41,7.762C-8.418,6.994 -8.42,6.582 -8.42,6.526C-8.42,6.435 -8.373,6.39 -8.273,6.39L-7.846,6.39C-7.762,6.39 -7.713,6.435 -7.697,6.526C-7.684,6.617 -7.664,6.836 -7.635,7.186C-7.594,7.94 -7.314,8.554 -6.797,9.03C-6.553,9.253 -6.203,9.442 -5.75,9.595C-5.297,9.748 -4.887,9.826 -4.523,9.826C-3.127,9.826 -2.195,9.361 -1.729,8.432C-1.518,7.999 -1.414,7.461 -1.414,6.82C-1.414,6.246 -1.613,5.754 -2.01,5.342C-2.457,4.881 -3.236,4.452 -4.346,4.054C-5.604,3.607 -6.498,3.157 -7.027,2.702C-7.732,2.11 -8.086,1.181 -8.086,-0.084C-8.086,-1.27 -7.604,-2.272 -6.641,-3.09C-5.906,-3.718 -4.943,-4.032 -3.75,-4.032C-2.961,-4.032 -2.227,-3.899 -1.549,-3.634C-1.117,-3.466 -0.799,-3.292 -0.596,-3.11C-0.498,-3.041 -0.443,-2.946 -0.43,-2.828C-0.352,-2.297 -0.314,-1.585 -0.314,-0.691C-0.314,-0.545 -0.334,-0.471 -0.377,-0.471L-0.879,-0.471C-0.928,-0.471 -0.963,-0.512 -0.984,-0.596C-1.025,-0.799 -1.074,-1.064 -1.131,-1.392C-1.236,-1.875 -1.48,-2.223 -1.863,-2.44C-2.568,-2.845 -3.383,-3.048 -4.305,-3.048C-5.135,-3.048 -5.75,-2.87 -6.148,-2.513C-6.566,-2.143 -6.777,-1.49 -6.777,-0.554C-6.777,0.018 -6.58,0.517 -6.189,0.943C-6.002,1.153 -5.635,1.376 -5.09,1.614C-4.637,1.795 -4.182,1.98 -3.729,2.168C-2.828,2.56 -2.297,2.801 -2.137,2.891C-1.613,3.178 -1.17,3.524 -0.807,3.928C-0.268,4.536 0,5.342 0,6.348" style="fill-rule:nonzero;"/>
            </g>
            <g transform="matrix(1,0,0,1,517.369,391.778)">
                <path d="M0,14.057C0,14.114 -0.02,14.141 -0.062,14.141L-5.143,14.141C-5.205,14.141 -5.244,14.13 -5.258,14.11C-5.271,14.088 -5.277,14.064 -5.277,14.036L-5.277,13.711C-5.277,13.649 -5.268,13.612 -5.246,13.602C-5.227,13.591 -5.201,13.586 -5.174,13.586L-3.748,13.586C-3.65,13.586 -3.602,13.485 -3.602,13.282L-3.623,2.452C-3.623,1.132 -3.746,0.472 -3.99,0.472L-5.32,0.472C-5.418,0.472 -5.467,0.437 -5.467,0.368L-5.467,-0C-5.467,-0.055 -5.432,-0.084 -5.361,-0.084L-0.281,-0.084C-0.219,-0.084 -0.187,-0.055 -0.187,-0L-0.187,0.388C-0.187,0.444 -0.227,0.472 -0.303,0.472L-1.779,0.472C-1.906,0.472 -1.969,0.545 -1.969,0.692C-1.982,7.033 -1.988,10.307 -1.988,10.517C-1.988,11.55 -1.986,12.14 -1.979,12.287C-1.93,13.153 -1.791,13.586 -1.561,13.586L-0.082,13.586C-0.027,13.586 0,13.614 0,13.669L0,14.057Z" style="fill-rule:nonzero;"/>
            </g>
            <g transform="matrix(1,0,0,1,536.055,397.98)">
                <path d="M0,1.78C0,1.871 -0.043,1.917 -0.127,1.917L-1.625,1.917C-1.709,1.917 -1.75,1.959 -1.75,2.042C-1.75,1.986 -1.76,2.208 -1.775,2.708C-1.793,3.207 -1.803,3.694 -1.803,4.169C-1.803,5.034 -1.777,5.834 -1.729,6.567C-1.729,6.665 -1.768,6.72 -1.844,6.735C-2.082,6.735 -2.596,6.917 -3.385,7.279C-4.578,7.817 -5.846,8.086 -7.186,8.086C-8.695,8.086 -9.76,7.967 -10.381,7.729C-11.52,7.283 -12.412,6.595 -13.063,5.667C-13.789,4.619 -14.152,3.18 -14.152,1.351C-14.152,-0.465 -13.564,-2.095 -12.393,-3.54C-11.555,-4.568 -10.283,-5.346 -8.58,-5.876C-7.65,-6.162 -6.449,-6.306 -4.977,-6.306C-3.447,-6.306 -2.316,-6.177 -1.582,-5.918C-1.498,-5.89 -1.457,-5.841 -1.457,-5.772C-1.457,-5.737 -1.475,-5.579 -1.51,-5.3C-1.551,-4.987 -1.576,-4.805 -1.582,-4.756C-1.652,-4.043 -1.701,-3.624 -1.729,-3.498C-1.75,-3.422 -1.789,-3.383 -1.844,-3.383C-1.941,-3.383 -1.99,-3.415 -1.99,-3.478C-1.99,-3.646 -2.012,-3.81 -2.055,-3.97C-2.131,-4.242 -2.316,-4.476 -2.609,-4.672C-3.42,-5.202 -4.652,-5.468 -6.307,-5.468C-7.215,-5.468 -7.969,-5.364 -8.568,-5.154C-9.357,-4.874 -10.098,-4.365 -10.789,-3.624C-11.9,-2.423 -12.455,-0.894 -12.455,0.964C-12.455,3.009 -11.861,4.626 -10.674,5.813C-9.996,6.498 -9.229,6.958 -8.369,7.195C-7.797,7.349 -7.029,7.426 -6.066,7.426C-5.207,7.426 -4.373,7.154 -3.563,6.609C-3.5,6.532 -3.469,6.469 -3.469,6.421L-3.469,4.566C-3.469,3.903 -3.475,3.439 -3.488,3.174C-3.537,2.336 -3.611,1.917 -3.709,1.917L-5.961,1.917C-6.045,1.917 -6.086,1.85 -6.086,1.718L-6.086,1.508C-6.086,1.403 -6.037,1.351 -5.939,1.351L-0.148,1.351C-0.051,1.351 0,1.396 0,1.487L0,1.78Z" style="fill-rule:nonzero;"/>
            </g>
            <g transform="matrix(1,0,0,1,555.406,405.877)">
                <path d="M0,-13.773C0,-13.689 -0.033,-13.648 -0.104,-13.648L-1.561,-13.648C-1.707,-13.648 -1.779,-13.553 -1.779,-13.365C-1.779,-13.309 -1.787,-12.357 -1.801,-10.51C-1.814,-8.664 -1.822,-7.665 -1.822,-7.515C-1.822,-7.365 -1.836,-6.117 -1.863,-3.77C-1.891,-1.424 -1.906,-0.188 -1.906,-0.062C-1.906,0.266 -1.947,0.43 -2.031,0.43C-2.129,0.43 -2.209,0.388 -2.271,0.304C-2.908,-0.547 -4.789,-2.967 -7.918,-6.955C-9.027,-8.442 -10.334,-10.1 -11.836,-11.929C-11.934,-12.013 -12,-11.986 -12.033,-11.846C-12.055,-11.755 -12.107,-10.474 -12.191,-8.002C-12.268,-5.502 -12.307,-3.934 -12.307,-3.299C-12.307,-1.441 -12.121,-0.512 -11.752,-0.512L-10.357,-0.512C-10.289,-0.512 -10.254,-0.485 -10.254,-0.429L-10.254,-0.042C-10.254,0.015 -10.281,0.042 -10.338,0.042L-14.453,0.042C-14.545,0.042 -14.59,0.022 -14.59,-0.02L-14.59,-0.408C-14.59,-0.478 -14.545,-0.512 -14.453,-0.512L-13.166,-0.512C-13.055,-0.512 -12.998,-0.565 -12.998,-0.669L-12.998,-2.21C-12.998,-2.622 -12.947,-4.294 -12.846,-7.227C-12.744,-10.16 -12.693,-11.654 -12.693,-11.71C-12.693,-13.002 -13.137,-13.648 -14.023,-13.648L-14.758,-13.648C-14.813,-13.648 -14.842,-13.682 -14.842,-13.752L-14.842,-14.098C-14.842,-14.168 -14.807,-14.203 -14.736,-14.203L-11.426,-14.203C-11.336,-14.203 -11.26,-14.147 -11.195,-14.035C-11.133,-13.923 -10.555,-13.136 -9.463,-11.673C-8.369,-10.21 -7.754,-9.395 -7.613,-9.227C-6.051,-7.146 -4.391,-5 -2.639,-2.786C-2.611,-2.764 -2.582,-2.754 -2.555,-2.754C-2.506,-2.754 -2.475,-2.852 -2.461,-3.047C-2.453,-3.18 -2.453,-4.416 -2.461,-6.755C-2.467,-9.102 -2.475,-10.369 -2.482,-10.557C-2.586,-12.618 -2.838,-13.648 -3.236,-13.648L-4.67,-13.648C-4.762,-13.648 -4.807,-13.682 -4.807,-13.752L-4.807,-14.098C-4.807,-14.168 -4.768,-14.203 -4.691,-14.203L-0.125,-14.203C-0.041,-14.203 0,-14.174 0,-14.119L0,-13.773Z" style="fill-rule:nonzero;"/>
            </g>
        </g>
        <g id="title">
            <g id="Half">
                <g transform="matrix(1,0,0,1,230.292,353.209)">
                    <path d="M0,20.472C0,20.595 -0.041,20.657 -0.123,20.657L-8.042,20.657C-8.175,20.657 -8.242,20.606 -8.242,20.503L-8.242,19.996C-8.242,19.895 -8.165,19.843 -8.012,19.843L-5.786,19.843C-5.602,19.843 -5.49,19.792 -5.449,19.69C-5.408,19.587 -5.382,19.26 -5.372,18.707C-5.352,17.592 -5.341,14.774 -5.341,10.251C-5.341,10.067 -5.428,9.975 -5.602,9.975L-16.376,9.975C-16.56,9.975 -16.652,10.087 -16.652,10.312C-16.652,13.627 -16.642,15.663 -16.622,16.42C-16.56,18.702 -16.33,19.843 -15.931,19.843L-13.353,19.843C-13.271,19.843 -13.23,19.905 -13.23,20.028L-13.23,20.503C-13.23,20.606 -13.271,20.657 -13.353,20.657L-21.318,20.657C-21.441,20.657 -21.502,20.606 -21.502,20.503L-21.502,20.028C-21.502,19.905 -21.441,19.843 -21.318,19.843L-19.399,19.843C-19.154,19.843 -19.008,19.792 -18.962,19.69C-18.916,19.587 -18.893,19.26 -18.893,18.707C-18.893,18.534 -18.903,17.14 -18.924,14.525C-18.944,11.911 -18.955,10.463 -18.955,10.182C-18.955,9.901 -18.965,8.79 -18.985,6.852C-19.006,4.912 -19.016,3.876 -19.016,3.743C-19.016,1.666 -19.185,0.628 -19.522,0.628L-21.687,0.628C-21.809,0.628 -21.871,0.576 -21.871,0.475L-21.871,-0.032C-21.871,-0.134 -21.809,-0.185 -21.687,-0.185L-13.859,-0.185C-13.736,-0.185 -13.675,-0.109 -13.675,0.045L-13.675,0.475C-13.675,0.576 -13.736,0.628 -13.859,0.628L-16.161,0.628C-16.396,0.628 -16.532,0.646 -16.568,0.682C-16.604,0.718 -16.622,0.838 -16.622,1.042C-16.622,6.496 -16.632,8.967 -16.652,8.455C-16.642,8.691 -16.56,8.808 -16.407,8.808L-5.633,8.808C-5.459,8.808 -5.372,8.711 -5.372,8.517C-5.372,8.446 -5.377,7.629 -5.387,6.069C-5.397,4.508 -5.402,3.652 -5.402,3.498C-5.402,1.585 -5.602,0.628 -6.001,0.628L-8.365,0.628C-8.467,0.628 -8.518,0.567 -8.518,0.444L-8.518,-0.032C-8.518,-0.134 -8.447,-0.185 -8.303,-0.185L-0.445,-0.185C-0.312,-0.185 -0.246,-0.109 -0.246,0.045L-0.246,0.444C-0.246,0.567 -0.312,0.628 -0.445,0.628L-2.456,0.628C-2.753,0.628 -2.927,0.654 -2.978,0.704C-3.029,0.756 -3.054,0.919 -3.054,1.196L-3.054,9.53C-3.054,13.673 -3.044,16.073 -3.023,16.728C-2.952,18.805 -2.753,19.843 -2.425,19.843L-0.185,19.843C-0.062,19.843 0,19.905 0,20.028L0,20.472Z" style="fill-rule:nonzero;"/>
                </g>
                <g transform="matrix(1,0,0,1,246.574,360.697)">
                    <path d="M0,4.267C-0.419,3.049 -0.87,1.714 -1.351,0.261C-1.832,-1.192 -2.328,-2.706 -2.839,-4.282C-2.87,-4.415 -2.911,-4.497 -2.962,-4.527C-3.003,-4.486 -3.054,-4.405 -3.116,-4.282C-4.395,-1.151 -5.313,1.07 -5.871,2.379C-6.428,3.689 -6.707,4.364 -6.707,4.405C-6.707,4.466 -6.661,4.497 -6.569,4.497L-0.077,4.497C0.025,4.497 0.051,4.42 0,4.267M7.597,13.015C7.597,13.118 7.566,13.168 7.505,13.168L0.43,13.168C0.327,13.168 0.276,13.107 0.276,12.984L0.276,12.57C0.276,12.426 0.327,12.355 0.43,12.355L2.532,12.355C2.696,12.355 2.763,12.263 2.732,12.079C2.64,11.751 2.287,10.685 1.673,8.878C1.059,7.073 0.721,6.104 0.66,5.97C0.578,5.766 0.471,5.663 0.338,5.663L-7.075,5.663C-7.167,5.684 -7.244,5.746 -7.306,5.848C-7.449,6.123 -7.694,6.771 -8.042,7.789C-8.39,8.807 -8.605,9.5 -8.687,9.869C-8.851,10.687 -8.932,11.178 -8.932,11.342C-8.932,12.017 -8.851,12.355 -8.687,12.355L-6.354,12.355C-6.231,12.355 -6.17,12.426 -6.17,12.57L-6.17,13.015C-6.17,13.118 -6.221,13.168 -6.323,13.168L-12.523,13.168C-12.626,13.168 -12.677,13.118 -12.677,13.015L-12.677,12.508C-12.677,12.407 -12.636,12.355 -12.554,12.355L-11.234,12.355C-11.009,12.355 -10.705,11.874 -10.321,10.913C-9.938,9.951 -8.794,7.172 -6.891,2.579C-5.673,-0.317 -4.195,-3.827 -2.456,-7.95C-2.343,-8.267 -2.23,-8.446 -2.118,-8.487C-1.832,-8.569 -1.463,-8.697 -1.013,-8.871C-0.941,-8.901 -0.859,-8.847 -0.768,-8.71C-0.675,-8.572 -0.716,-8.416 -0.89,-8.242C-1.197,-7.924 -1.351,-7.618 -1.351,-7.321C-1.361,-7.013 -1.289,-6.63 -1.136,-6.17C-0.583,-4.634 0.415,-1.762 1.857,2.448C3.3,6.659 4.302,9.383 4.865,10.621C5.407,11.777 5.796,12.355 6.032,12.355L7.474,12.355C7.556,12.355 7.597,12.426 7.597,12.57L7.597,13.015Z" style="fill-rule:nonzero;"/>
                </g>
                <g transform="matrix(1,0,0,1,274.12,355.156)">
                    <path d="M0,16.545C0,16.637 -0.164,16.959 -0.491,17.512C-0.573,17.727 -0.752,18.065 -1.028,18.524C-1.11,18.648 -1.197,18.709 -1.289,18.709L-15.9,18.709C-16.023,18.709 -16.084,18.658 -16.084,18.556L-16.084,18.049C-16.084,17.947 -16.033,17.896 -15.931,17.896L-13.628,17.896C-13.444,17.896 -13.352,17.788 -13.352,17.573C-13.352,17.482 -13.368,16.862 -13.398,15.716C-13.429,14.57 -13.424,12.033 -13.383,8.104C-13.342,4.175 -13.322,2.113 -13.322,1.919C-13.322,-0.261 -13.521,-1.351 -13.92,-1.351L-15.654,-1.351C-15.798,-1.351 -15.869,-1.412 -15.869,-1.534L-15.869,-1.979C-15.869,-2.102 -15.808,-2.164 -15.685,-2.164L-7.382,-2.164C-7.28,-2.164 -7.229,-2.123 -7.229,-2.041L-7.229,-1.504C-7.229,-1.401 -7.27,-1.351 -7.352,-1.351L-10.436,-1.351C-10.59,-1.351 -10.682,-1.278 -10.712,-1.136C-10.743,-0.992 -10.794,1.504 -10.866,6.355C-10.927,10.918 -10.958,13.517 -10.958,14.15C-10.958,16.515 -10.687,17.696 -10.145,17.696C-6.84,17.696 -4.942,17.676 -4.451,17.635C-2.854,17.502 -1.571,17.139 -0.599,16.545C-0.353,16.392 -0.205,16.315 -0.153,16.315C-0.051,16.387 0,16.463 0,16.545" style="fill-rule:nonzero;"/>
                </g>
                <g transform="matrix(1,0,0,1,293.64,373.681)">
                    <path d="M0,-20.474C0,-20.535 -0.082,-20.228 -0.246,-19.553C-0.348,-19.174 -0.465,-18.694 -0.598,-18.11C-0.619,-17.967 -0.68,-17.895 -0.783,-17.895C-0.854,-17.895 -0.916,-17.947 -0.967,-18.049C-1.089,-18.253 -1.248,-18.453 -1.442,-18.647C-1.801,-18.985 -2.379,-19.195 -3.177,-19.277C-3.351,-19.287 -4.573,-19.351 -6.845,-19.468C-9.116,-19.586 -10.313,-19.645 -10.436,-19.645C-10.559,-19.645 -10.62,-19.593 -10.62,-19.492C-10.743,-18.928 -10.805,-16.448 -10.805,-12.048C-10.805,-11.772 -10.702,-11.633 -10.498,-11.633L-2.854,-11.633C-2.681,-11.633 -2.588,-11.685 -2.578,-11.786C-2.527,-12.37 -2.466,-13.02 -2.394,-13.736C-2.374,-13.869 -2.297,-13.936 -2.164,-13.936L-1.888,-13.936C-1.786,-13.936 -1.734,-13.859 -1.734,-13.705C-1.734,-13.674 -1.755,-13.224 -1.795,-12.355C-1.836,-11.485 -1.857,-10.984 -1.857,-10.851C-1.857,-10.707 -1.852,-10.162 -1.841,-9.216C-1.832,-8.27 -1.826,-7.766 -1.826,-7.704C-1.826,-7.428 -1.888,-7.29 -2.01,-7.29L-2.333,-7.29C-2.404,-7.29 -2.456,-7.357 -2.486,-7.49C-2.486,-7.54 -2.507,-7.978 -2.547,-8.802C-2.588,-9.625 -2.609,-10.058 -2.609,-10.099C-2.609,-10.201 -2.681,-10.262 -2.824,-10.283C-3.458,-10.385 -6.026,-10.436 -10.528,-10.436C-10.672,-10.436 -10.753,-10.365 -10.774,-10.221L-10.774,-4.681C-10.774,-1.98 -10.503,-0.629 -9.96,-0.629L-6.921,-0.629C-6.83,-0.629 -6.784,-0.588 -6.784,-0.506L-6.784,0C-6.784,0.123 -6.84,0.184 -6.952,0.184L-15.271,0.184C-15.383,0.184 -15.439,0.133 -15.439,0.031L-15.439,-0.414C-15.439,-0.558 -15.383,-0.629 -15.271,-0.629L-13.383,-0.629C-13.219,-0.629 -13.127,-0.724 -13.106,-0.913C-13.086,-1.102 -13.076,-4.476 -13.076,-11.035L-13.076,-16.375C-13.076,-18.688 -13.255,-19.844 -13.613,-19.844L-15.563,-19.844C-15.685,-19.844 -15.747,-19.885 -15.747,-19.967L-15.747,-20.504C-15.747,-20.607 -15.695,-20.658 -15.593,-20.658L-10.59,-20.658C-10.436,-20.658 -8.96,-20.648 -6.162,-20.627C-3.364,-20.607 -1.888,-20.596 -1.734,-20.596C-1.53,-20.596 -1.228,-20.607 -0.829,-20.627C-0.43,-20.648 -0.225,-20.658 -0.215,-20.658C-0.072,-20.658 0,-20.596 0,-20.474" style="fill-rule:nonzero;"/>
                </g>
            </g>
            <g id="moon">
                <g transform="matrix(1,0,0,1,342.637,353.591)">
                    <path d="M0,20.121C0,20.224 -0.051,20.274 -0.153,20.274L-7.167,20.274C-7.311,20.274 -7.382,20.224 -7.382,20.121L-7.382,19.614C-7.382,19.513 -7.331,19.461 -7.229,19.461L-5.571,19.461C-5.315,19.461 -5.187,19.333 -5.187,19.077L-5.187,11.22C-5.187,7.178 -5.229,4.476 -5.31,3.116C-5.331,2.819 -5.382,2.671 -5.463,2.671C-5.525,2.671 -5.602,2.768 -5.694,2.962C-5.909,3.402 -7.98,8.103 -11.91,17.066C-12.503,18.397 -12.974,19.527 -13.322,20.459C-13.424,20.633 -13.511,20.72 -13.583,20.72C-13.726,20.72 -13.818,20.642 -13.859,20.489C-15.271,17.603 -16.729,14.611 -18.233,11.511C-19.072,9.689 -20.233,7.28 -21.717,4.282C-21.809,4.108 -21.891,4.021 -21.962,4.021C-22.044,4.021 -22.09,4.129 -22.101,4.344C-22.376,8.426 -22.515,11.409 -22.515,13.291L-22.515,16.76C-22.515,18.56 -22.269,19.461 -21.778,19.461L-19.967,19.461C-19.854,19.461 -19.798,19.502 -19.798,19.584L-19.798,20.121C-19.798,20.224 -19.834,20.274 -19.906,20.274L-25.461,20.274C-25.584,20.274 -25.646,20.233 -25.646,20.151L-25.646,19.676C-25.646,19.532 -25.595,19.461 -25.492,19.461L-23.896,19.461C-23.62,19.461 -23.481,19.23 -23.481,18.77C-23.481,17.174 -23.41,14.248 -23.267,9.991C-23.216,9.193 -23.169,8.391 -23.129,7.582C-23.047,5.996 -23.006,4.63 -23.006,3.484C-23.006,1.99 -23.522,0.987 -24.556,0.475C-24.781,0.363 -25.242,0.276 -25.937,0.215C-26.02,0.215 -26.06,0.175 -26.06,0.093L-26.06,-0.476C-26.06,-0.558 -26.02,-0.599 -25.937,-0.599L-21.886,-0.599C-21.701,-0.599 -21.574,-0.526 -21.502,-0.384C-20.55,1.499 -19.522,3.546 -18.417,5.756C-16.8,9.234 -15.051,12.902 -13.168,16.76C-12.994,17.016 -12.861,17.057 -12.769,16.883C-11.623,14.273 -10.396,11.506 -9.085,8.579C-7.817,5.653 -6.518,2.691 -5.187,-0.307C-5.085,-0.501 -4.926,-0.599 -4.711,-0.599L-0.783,-0.599C-0.681,-0.599 -0.629,-0.558 -0.629,-0.476L-0.629,0.061C-0.629,0.164 -0.66,0.215 -0.721,0.215L-2.241,0.215C-2.547,0.215 -2.732,0.563 -2.793,1.259C-2.865,1.914 -2.9,4.481 -2.9,8.963C-2.9,12.258 -2.865,14.616 -2.793,16.038C-2.691,18.32 -2.389,19.461 -1.888,19.461L-0.123,19.461C-0.041,19.461 0,19.513 0,19.614L0,20.121Z" style="fill-rule:nonzero;"/>
                </g>
                <g transform="matrix(1,0,0,1,365.365,363.075)">
                    <path d="M0,0.737C0,-0.737 -0.169,-2.026 -0.507,-3.13C-0.885,-4.409 -1.489,-5.52 -2.318,-6.461C-3.075,-7.321 -3.975,-7.97 -5.019,-8.41C-6.226,-8.911 -7.434,-9.162 -8.641,-9.162C-10.207,-9.162 -11.337,-8.911 -12.033,-8.41C-13.301,-7.51 -14.171,-6.517 -14.642,-5.433C-15.276,-4 -15.593,-2.25 -15.593,-0.184C-15.593,2.865 -15.025,5.264 -13.89,7.014C-13.205,8.079 -12.176,8.927 -10.805,9.562C-9.73,10.063 -8.559,10.314 -7.29,10.314C-5.858,10.314 -4.538,9.915 -3.331,9.117C-2.389,8.503 -1.581,7.449 -0.906,5.955C-0.302,4.594 0,2.855 0,0.737M2.425,-0.092C2.425,3.141 1.647,5.669 0.092,7.49C-0.451,8.134 -0.901,8.6 -1.259,8.886C-2.006,9.48 -2.978,9.997 -4.175,10.437C-5.137,10.795 -6.385,10.974 -7.919,10.974C-10.365,10.974 -12.207,10.662 -13.445,10.038C-14.345,9.588 -15.102,9.009 -15.716,8.303C-16.474,7.444 -17.016,6.498 -17.343,5.465C-17.742,4.226 -17.941,2.594 -17.941,0.568C-17.941,-0.813 -17.752,-2.122 -17.374,-3.361C-16.923,-4.824 -16.253,-6.057 -15.363,-7.06C-14.473,-8.062 -13.194,-8.891 -11.526,-9.546C-10.35,-10.006 -9.04,-10.237 -7.597,-10.237C-5.408,-10.237 -3.735,-9.976 -2.579,-9.453C-1.279,-8.87 -0.261,-8.073 0.476,-7.06C1.775,-5.289 2.425,-2.967 2.425,-0.092" style="fill-rule:nonzero;"/>
                </g>
                <g transform="matrix(1,0,0,1,390.578,363.075)">
                    <path d="M0,0.737C0,-0.737 -0.169,-2.026 -0.507,-3.13C-0.885,-4.409 -1.489,-5.52 -2.318,-6.461C-3.075,-7.321 -3.975,-7.97 -5.019,-8.41C-6.226,-8.911 -7.434,-9.162 -8.641,-9.162C-10.207,-9.162 -11.337,-8.911 -12.033,-8.41C-13.301,-7.51 -14.171,-6.517 -14.642,-5.433C-15.276,-4 -15.593,-2.25 -15.593,-0.184C-15.593,2.865 -15.025,5.264 -13.89,7.014C-13.205,8.079 -12.176,8.927 -10.805,9.562C-9.73,10.063 -8.559,10.314 -7.29,10.314C-5.858,10.314 -4.538,9.915 -3.331,9.117C-2.389,8.503 -1.581,7.449 -0.906,5.955C-0.302,4.594 0,2.855 0,0.737M2.425,-0.092C2.425,3.141 1.647,5.669 0.092,7.49C-0.451,8.134 -0.901,8.6 -1.259,8.886C-2.006,9.48 -2.978,9.997 -4.175,10.437C-5.137,10.795 -6.385,10.974 -7.919,10.974C-10.365,10.974 -12.207,10.662 -13.445,10.038C-14.345,9.588 -15.102,9.009 -15.716,8.303C-16.474,7.444 -17.016,6.498 -17.343,5.465C-17.742,4.226 -17.941,2.594 -17.941,0.568C-17.941,-0.813 -17.752,-2.122 -17.374,-3.361C-16.923,-4.824 -16.253,-6.057 -15.363,-7.06C-14.473,-8.062 -13.194,-8.891 -11.526,-9.546C-10.35,-10.006 -9.04,-10.237 -7.597,-10.237C-5.408,-10.237 -3.735,-9.976 -2.579,-9.453C-1.279,-8.87 -0.261,-8.073 0.476,-7.06C1.775,-5.289 2.425,-2.967 2.425,-0.092" style="fill-rule:nonzero;"/>
                </g>
                <g transform="matrix(1,0,0,1,419.659,373.803)">
                    <path d="M0,-20.181C0,-20.059 -0.051,-19.997 -0.153,-19.997L-2.286,-19.997C-2.501,-19.997 -2.608,-19.859 -2.608,-19.582C-2.608,-19.5 -2.619,-18.107 -2.64,-15.401C-2.66,-12.694 -2.67,-11.231 -2.67,-11.011C-2.67,-10.791 -2.69,-8.962 -2.731,-5.525C-2.772,-2.086 -2.793,-0.276 -2.793,-0.091C-2.793,0.389 -2.854,0.63 -2.977,0.63C-3.12,0.63 -3.238,0.569 -3.33,0.446C-4.261,-0.802 -7.019,-4.348 -11.603,-10.19C-13.229,-12.369 -15.143,-14.799 -17.343,-17.48C-17.485,-17.603 -17.583,-17.562 -17.634,-17.358C-17.665,-17.224 -17.741,-15.347 -17.864,-11.725C-17.977,-8.062 -18.033,-5.765 -18.033,-4.833C-18.033,-2.112 -17.762,-0.751 -17.22,-0.751L-15.179,-0.751C-15.076,-0.751 -15.024,-0.71 -15.024,-0.628L-15.024,-0.061C-15.024,0.021 -15.065,0.062 -15.147,0.062L-21.179,0.062C-21.312,0.062 -21.379,0.032 -21.379,-0.03L-21.379,-0.598C-21.379,-0.7 -21.312,-0.751 -21.179,-0.751L-19.292,-0.751C-19.128,-0.751 -19.046,-0.828 -19.046,-0.982L-19.046,-3.238C-19.046,-3.841 -18.972,-6.291 -18.824,-10.589C-18.675,-14.886 -18.601,-17.076 -18.601,-17.158C-18.601,-19.05 -19.251,-19.997 -20.55,-19.997L-21.625,-19.997C-21.707,-19.997 -21.747,-20.048 -21.747,-20.151L-21.747,-20.657C-21.747,-20.759 -21.696,-20.811 -21.594,-20.811L-16.744,-20.811C-16.611,-20.811 -16.498,-20.729 -16.406,-20.565C-16.314,-20.401 -15.468,-19.247 -13.866,-17.104C-12.265,-14.96 -11.362,-13.766 -11.157,-13.521C-8.865,-10.471 -6.436,-7.326 -3.867,-4.081C-3.826,-4.051 -3.785,-4.035 -3.744,-4.035C-3.673,-4.035 -3.627,-4.179 -3.606,-4.465C-3.596,-4.66 -3.596,-6.471 -3.606,-9.899C-3.616,-13.336 -3.627,-15.194 -3.637,-15.47C-3.79,-18.488 -4.159,-19.997 -4.742,-19.997L-6.845,-19.997C-6.978,-19.997 -7.044,-20.048 -7.044,-20.151L-7.044,-20.657C-7.044,-20.759 -6.988,-20.811 -6.875,-20.811L-0.184,-20.811C-0.061,-20.811 0,-20.77 0,-20.688L0,-20.181Z" style="fill-rule:nonzero;"/>
                </g>
            </g>
            <g id="hollow">
                <g transform="matrix(1,0,0,1,464.007,353.209)">
                    <path d="M0,20.472C0,20.595 -0.041,20.657 -0.123,20.657L-8.042,20.657C-8.175,20.657 -8.241,20.606 -8.241,20.503L-8.241,19.996C-8.241,19.895 -8.165,19.843 -8.012,19.843L-5.786,19.843C-5.602,19.843 -5.489,19.792 -5.448,19.69C-5.407,19.587 -5.382,19.26 -5.372,18.707C-5.352,17.592 -5.341,14.774 -5.341,10.251C-5.341,10.067 -5.428,9.975 -5.602,9.975L-16.376,9.975C-16.56,9.975 -16.652,10.087 -16.652,10.312C-16.652,13.627 -16.642,15.663 -16.621,16.42C-16.56,18.702 -16.33,19.843 -15.931,19.843L-13.353,19.843C-13.271,19.843 -13.229,19.905 -13.229,20.028L-13.229,20.503C-13.229,20.606 -13.271,20.657 -13.353,20.657L-21.317,20.657C-21.44,20.657 -21.502,20.606 -21.502,20.503L-21.502,20.028C-21.502,19.905 -21.44,19.843 -21.317,19.843L-19.399,19.843C-19.153,19.843 -19.008,19.792 -18.962,19.69C-18.916,19.587 -18.893,19.26 -18.893,18.707C-18.893,18.534 -18.903,17.14 -18.924,14.525C-18.944,11.911 -18.954,10.463 -18.954,10.182C-18.954,9.901 -18.965,8.79 -18.985,6.852C-19.006,4.912 -19.016,3.876 -19.016,3.743C-19.016,1.666 -19.185,0.628 -19.522,0.628L-21.687,0.628C-21.809,0.628 -21.87,0.576 -21.87,0.475L-21.87,-0.032C-21.87,-0.134 -21.809,-0.185 -21.687,-0.185L-13.858,-0.185C-13.736,-0.185 -13.675,-0.109 -13.675,0.045L-13.675,0.475C-13.675,0.576 -13.736,0.628 -13.858,0.628L-16.161,0.628C-16.396,0.628 -16.532,0.646 -16.567,0.682C-16.604,0.718 -16.621,0.838 -16.621,1.042C-16.621,6.496 -16.632,8.967 -16.652,8.455C-16.642,8.691 -16.56,8.808 -16.406,8.808L-5.633,8.808C-5.459,8.808 -5.372,8.711 -5.372,8.517C-5.372,8.446 -5.377,7.629 -5.387,6.069C-5.397,4.508 -5.402,3.652 -5.402,3.498C-5.402,1.585 -5.602,0.628 -6.001,0.628L-8.364,0.628C-8.467,0.628 -8.518,0.567 -8.518,0.444L-8.518,-0.032C-8.518,-0.134 -8.446,-0.185 -8.303,-0.185L-0.445,-0.185C-0.312,-0.185 -0.245,-0.109 -0.245,0.045L-0.245,0.444C-0.245,0.567 -0.312,0.628 -0.445,0.628L-2.455,0.628C-2.753,0.628 -2.927,0.654 -2.978,0.704C-3.028,0.756 -3.054,0.919 -3.054,1.196L-3.054,9.53C-3.054,13.673 -3.044,16.073 -3.023,16.728C-2.952,18.805 -2.753,19.843 -2.425,19.843L-0.185,19.843C-0.062,19.843 0,19.905 0,20.028L0,20.472Z" style="fill-rule:nonzero;"/>
                </g>
                <g transform="matrix(1,0,0,1,486.565,363.075)">
                    <path d="M0,0.737C0,-0.737 -0.169,-2.026 -0.507,-3.13C-0.886,-4.409 -1.489,-5.52 -2.318,-6.461C-3.075,-7.321 -3.976,-7.97 -5.02,-8.41C-6.227,-8.911 -7.434,-9.162 -8.641,-9.162C-10.207,-9.162 -11.337,-8.911 -12.033,-8.41C-13.302,-7.51 -14.172,-6.517 -14.642,-5.433C-15.276,-4 -15.594,-2.25 -15.594,-0.184C-15.594,2.865 -15.025,5.264 -13.89,7.014C-13.205,8.079 -12.177,8.927 -10.805,9.562C-9.73,10.063 -8.56,10.314 -7.29,10.314C-5.858,10.314 -4.538,9.915 -3.331,9.117C-2.39,8.503 -1.581,7.449 -0.906,5.955C-0.303,4.594 0,2.855 0,0.737M2.425,-0.092C2.425,3.141 1.646,5.669 0.092,7.49C-0.451,8.134 -0.901,8.6 -1.259,8.886C-2.006,9.48 -2.978,9.997 -4.175,10.437C-5.137,10.795 -6.385,10.974 -7.92,10.974C-10.365,10.974 -12.207,10.662 -13.445,10.038C-14.346,9.588 -15.103,9.009 -15.717,8.303C-16.474,7.444 -17.016,6.498 -17.343,5.465C-17.742,4.226 -17.941,2.594 -17.941,0.568C-17.941,-0.813 -17.753,-2.122 -17.374,-3.361C-16.924,-4.824 -16.254,-6.057 -15.363,-7.06C-14.474,-8.062 -13.194,-8.891 -11.526,-9.546C-10.35,-10.006 -9.04,-10.237 -7.598,-10.237C-5.408,-10.237 -3.735,-9.976 -2.579,-9.453C-1.279,-8.87 -0.262,-8.073 0.476,-7.06C1.774,-5.289 2.425,-2.967 2.425,-0.092" style="fill-rule:nonzero;"/>
                </g>
                <g transform="matrix(1,0,0,1,509.952,355.156)">
                    <path d="M0,16.545C0,16.637 -0.163,16.959 -0.491,17.512C-0.573,17.727 -0.752,18.065 -1.028,18.524C-1.11,18.648 -1.196,18.709 -1.289,18.709L-15.899,18.709C-16.022,18.709 -16.084,18.658 -16.084,18.556L-16.084,18.049C-16.084,17.947 -16.033,17.896 -15.931,17.896L-13.628,17.896C-13.444,17.896 -13.352,17.788 -13.352,17.573C-13.352,17.482 -13.367,16.862 -13.398,15.716C-13.429,14.57 -13.424,12.033 -13.383,8.104C-13.342,4.175 -13.321,2.113 -13.321,1.919C-13.321,-0.261 -13.521,-1.351 -13.92,-1.351L-15.654,-1.351C-15.798,-1.351 -15.869,-1.412 -15.869,-1.534L-15.869,-1.979C-15.869,-2.102 -15.808,-2.164 -15.685,-2.164L-7.382,-2.164C-7.279,-2.164 -7.229,-2.123 -7.229,-2.041L-7.229,-1.504C-7.229,-1.401 -7.27,-1.351 -7.352,-1.351L-10.436,-1.351C-10.59,-1.351 -10.682,-1.278 -10.712,-1.136C-10.743,-0.992 -10.794,1.504 -10.865,6.355C-10.927,10.918 -10.958,13.517 -10.958,14.15C-10.958,16.515 -10.687,17.696 -10.145,17.696C-6.84,17.696 -4.941,17.676 -4.45,17.635C-2.854,17.502 -1.57,17.139 -0.599,16.545C-0.353,16.392 -0.204,16.315 -0.153,16.315C-0.051,16.387 0,16.463 0,16.545" style="fill-rule:nonzero;"/>
                </g>
                <g transform="matrix(1,0,0,1,529.718,355.156)">
                    <path d="M0,16.545C0,16.637 -0.164,16.959 -0.491,17.512C-0.573,17.727 -0.752,18.065 -1.028,18.524C-1.11,18.648 -1.197,18.709 -1.289,18.709L-15.9,18.709C-16.023,18.709 -16.084,18.658 -16.084,18.556L-16.084,18.049C-16.084,17.947 -16.033,17.896 -15.931,17.896L-13.629,17.896C-13.444,17.896 -13.353,17.788 -13.353,17.573C-13.353,17.482 -13.368,16.862 -13.398,15.716C-13.43,14.57 -13.424,12.033 -13.383,8.104C-13.343,4.175 -13.322,2.113 -13.322,1.919C-13.322,-0.261 -13.521,-1.351 -13.92,-1.351L-15.654,-1.351C-15.798,-1.351 -15.869,-1.412 -15.869,-1.534L-15.869,-1.979C-15.869,-2.102 -15.809,-2.164 -15.686,-2.164L-7.382,-2.164C-7.28,-2.164 -7.229,-2.123 -7.229,-2.041L-7.229,-1.504C-7.229,-1.401 -7.27,-1.351 -7.352,-1.351L-10.437,-1.351C-10.59,-1.351 -10.682,-1.278 -10.713,-1.136C-10.743,-0.992 -10.795,1.504 -10.866,6.355C-10.928,10.918 -10.958,13.517 -10.958,14.15C-10.958,16.515 -10.688,17.696 -10.145,17.696C-6.84,17.696 -4.942,17.676 -4.451,17.635C-2.854,17.502 -1.571,17.139 -0.599,16.545C-0.354,16.392 -0.205,16.315 -0.153,16.315C-0.052,16.387 0,16.463 0,16.545" style="fill-rule:nonzero;"/>
                </g>
                <g transform="matrix(1,0,0,1,551.31,363.075)">
                    <path d="M0,0.737C0,-0.737 -0.169,-2.026 -0.507,-3.13C-0.886,-4.409 -1.489,-5.52 -2.318,-6.461C-3.075,-7.321 -3.976,-7.97 -5.02,-8.41C-6.227,-8.911 -7.434,-9.162 -8.641,-9.162C-10.207,-9.162 -11.337,-8.911 -12.033,-8.41C-13.302,-7.51 -14.172,-6.517 -14.642,-5.433C-15.276,-4 -15.594,-2.25 -15.594,-0.184C-15.594,2.865 -15.025,5.264 -13.89,7.014C-13.205,8.079 -12.177,8.927 -10.805,9.562C-9.73,10.063 -8.56,10.314 -7.29,10.314C-5.858,10.314 -4.538,9.915 -3.331,9.117C-2.39,8.503 -1.581,7.449 -0.906,5.955C-0.303,4.594 0,2.855 0,0.737M2.425,-0.092C2.425,3.141 1.646,5.669 0.092,7.49C-0.451,8.134 -0.901,8.6 -1.259,8.886C-2.006,9.48 -2.978,9.997 -4.175,10.437C-5.137,10.795 -6.385,10.974 -7.92,10.974C-10.365,10.974 -12.207,10.662 -13.445,10.038C-14.346,9.588 -15.103,9.009 -15.717,8.303C-16.474,7.444 -17.016,6.498 -17.343,5.465C-17.742,4.226 -17.941,2.594 -17.941,0.568C-17.941,-0.813 -17.753,-2.122 -17.374,-3.361C-16.924,-4.824 -16.254,-6.057 -15.363,-7.06C-14.474,-8.062 -13.194,-8.891 -11.526,-9.546C-10.35,-10.006 -9.04,-10.237 -7.598,-10.237C-5.408,-10.237 -3.735,-9.976 -2.579,-9.453C-1.279,-8.87 -0.262,-8.073 0.476,-7.06C1.774,-5.289 2.425,-2.967 2.425,-0.092" style="fill-rule:nonzero;"/>
                </g>
                <g transform="matrix(1,0,0,1,591.333,373.557)">
                    <path d="M0,-19.905C0,-19.802 -0.051,-19.752 -0.153,-19.752L-1.228,-19.752C-1.411,-19.752 -1.57,-19.644 -1.703,-19.429C-1.774,-19.316 -2.368,-17.889 -3.483,-15.147C-4.568,-12.497 -5.156,-11.044 -5.248,-10.789C-6.599,-7.759 -8.18,-4.133 -9.991,0.093C-10.145,0.471 -10.282,0.66 -10.405,0.66C-10.528,0.66 -10.656,0.492 -10.789,0.155C-11.792,-2.27 -12.963,-5.186 -14.304,-8.593C-15.112,-10.896 -15.879,-12.83 -16.605,-14.395C-16.708,-14.631 -16.779,-14.748 -16.82,-14.748C-16.872,-14.748 -16.923,-14.676 -16.974,-14.533C-17.025,-14.318 -17.885,-12.241 -19.553,-8.302C-21.527,-3.636 -22.755,-0.838 -23.235,0.093C-23.379,0.379 -23.502,0.523 -23.604,0.523C-23.778,0.523 -23.927,0.333 -24.049,-0.045C-25.267,-3.043 -26.525,-6.153 -27.825,-9.377C-28.92,-12.037 -30.07,-14.825 -31.278,-17.741C-31.432,-18.16 -31.754,-18.744 -32.245,-19.491C-32.46,-19.665 -32.695,-19.752 -32.951,-19.752L-33.61,-19.752C-33.713,-19.752 -33.765,-19.813 -33.765,-19.935L-33.765,-20.411C-33.765,-20.513 -33.724,-20.565 -33.642,-20.565L-27.165,-20.565C-27.012,-20.565 -26.935,-20.504 -26.935,-20.381L-26.935,-19.905C-26.935,-19.802 -26.991,-19.752 -27.104,-19.752L-28.976,-19.752C-29.19,-19.752 -29.298,-19.665 -29.298,-19.491C-29.298,-19.296 -29.258,-19.096 -29.176,-18.892C-27.323,-14.492 -26.295,-12.021 -26.091,-11.479C-24.464,-7.069 -23.425,-4.429 -22.975,-3.559C-22.862,-3.335 -22.739,-3.324 -22.606,-3.529C-21.799,-5.371 -20.949,-7.32 -20.059,-9.377C-18.534,-12.784 -17.665,-14.942 -17.45,-15.853C-17.398,-16.068 -17.419,-16.339 -17.511,-16.667C-17.828,-17.321 -18.177,-18.063 -18.555,-18.892C-18.893,-19.465 -19.194,-19.752 -19.46,-19.752L-21.057,-19.752C-21.169,-19.752 -21.226,-19.802 -21.226,-19.905L-21.226,-20.411C-21.226,-20.513 -21.169,-20.565 -21.057,-20.565L-13.398,-20.565C-13.285,-20.565 -13.229,-20.513 -13.229,-20.411L-13.229,-19.935C-13.229,-19.813 -13.296,-19.752 -13.429,-19.752L-15.899,-19.752C-16.033,-19.752 -16.1,-19.675 -16.1,-19.521C-16.1,-19.439 -16.002,-19.188 -15.808,-18.769C-15.368,-17.777 -14.354,-15.244 -12.769,-11.173C-11.909,-8.931 -10.942,-6.466 -9.868,-3.774C-9.766,-3.559 -9.684,-3.452 -9.622,-3.452C-9.571,-3.452 -9.51,-3.518 -9.438,-3.652C-9.121,-4.204 -8.548,-5.458 -7.72,-7.412C-7.29,-8.415 -6.865,-9.412 -6.445,-10.405C-5.638,-12.175 -4.886,-14.272 -4.189,-16.697C-3.954,-17.495 -3.837,-18.283 -3.837,-19.06C-3.837,-19.521 -4.036,-19.752 -4.435,-19.752L-5.939,-19.752C-6.072,-19.752 -6.139,-19.813 -6.139,-19.935L-6.139,-20.381C-6.139,-20.504 -6.062,-20.565 -5.908,-20.565L-0.184,-20.565C-0.061,-20.565 0,-20.504 0,-20.381L0,-19.905Z" style="fill-rule:nonzero;"/>
                </g>
            </g>
        </g>
        <g id="accent" transform="matrix(0.556739,0,0,0.556739,177.182,221.917)">
            <g transform="matrix(1,0,0,1,427.209,303.242)">
                <path d="M0,3.351C-2.075,2.84 0.734,0.734 0.798,0.606C0.862,0.479 -1.34,-2.106 -6.16,0.542C-10.979,3.191 -12.638,2.681 -12.638,2.681C-11.075,-1.181 -6.702,-1.245 -6.702,-1.245C-6.702,-1.245 -9.511,-3.415 -12.638,-0.096C-15.766,3.223 -18.367,3.925 -18.367,3.925C-9.894,-3.303 -14.729,-7.803 -14.729,-7.803C-14.729,-7.803 -12.287,-4.069 -18.223,1.197C-23.31,5.709 -26.42,7.72 -27.209,8.205C-27.997,7.72 -31.108,5.709 -36.194,1.197C-42.13,-4.069 -39.689,-7.803 -39.689,-7.803C-39.689,-7.803 -44.524,-3.303 -36.05,3.925C-36.05,3.925 -38.651,3.223 -41.779,-0.096C-44.907,-3.415 -47.715,-1.245 -47.715,-1.245C-47.715,-1.245 -43.343,-1.181 -41.779,2.681C-41.779,2.681 -43.439,3.191 -48.258,0.542C-53.077,-2.106 -55.279,0.479 -55.215,0.606C-55.151,0.734 -52.343,2.84 -54.417,3.351C-56.492,3.862 -57.545,6.175 -57.545,6.175C-57.545,6.175 -43.662,-2.25 -28.965,11.154L-25.452,11.154C-10.755,-2.25 3.128,6.175 3.128,6.175C3.128,6.175 2.074,3.862 0,3.351" style="fill:rgb(33,33,33);fill-rule:nonzero;"/>
            </g>
            <g transform="matrix(0,1,1,0,400,298.934)">
                <path d="M3.176,-3.176C1.422,-3.176 -0,-1.754 -0,0C-0,1.754 1.422,3.176 3.176,3.176C4.93,3.176 6.352,1.754 6.352,0C6.352,-1.754 4.93,-3.176 3.176,-3.176" style="fill:rgb(33,33,33);fill-rule:nonzero;"/>
            </g>
            <g transform="matrix(1,0,0,1,372.791,325.55)">
                <path d="M0,-3.351C2.075,-2.84 -0.734,-0.734 -0.798,-0.606C-0.862,-0.479 1.34,2.106 6.16,-0.542C10.979,-3.191 12.638,-2.681 12.638,-2.681C11.075,1.181 6.702,1.245 6.702,1.245C6.702,1.245 9.511,3.415 12.638,0.096C15.766,-3.223 18.367,-3.925 18.367,-3.925C9.894,3.303 14.729,7.803 14.729,7.803C14.729,7.803 12.287,4.069 18.223,-1.197C23.31,-5.709 26.42,-7.72 27.209,-8.205C27.997,-7.72 31.108,-5.709 36.194,-1.197C42.13,4.069 39.689,7.803 39.689,7.803C39.689,7.803 44.524,3.303 36.05,-3.925C36.05,-3.925 38.651,-3.223 41.779,0.096C44.907,3.415 47.715,1.245 47.715,1.245C47.715,1.245 43.343,1.181 41.779,-2.681C41.779,-2.681 43.439,-3.191 48.258,-0.542C53.077,2.106 55.279,-0.479 55.215,-0.606C55.151,-0.734 52.343,-2.84 54.417,-3.351C56.492,-3.862 57.545,-6.175 57.545,-6.175C57.545,-6.175 43.662,2.25 28.965,-11.154L25.452,-11.154C10.755,2.25 -3.128,-6.175 -3.128,-6.175C-3.128,-6.175 -2.074,-3.862 0,-3.351" style="fill:rgb(33,33,33);fill-rule:nonzero;"/>
            </g>
            <g transform="matrix(0,-1,-1,0,400,323.508)">
                <path d="M-3.176,-3.176C-4.93,-3.176 -6.352,-1.754 -6.352,0C-6.352,1.754 -4.93,3.176 -3.176,3.176C-1.422,3.176 0,1.754 0,0C0,-1.754 -1.422,-3.176 -3.176,-3.176" style="fill:rgb(33,33,33);fill-rule:nonzero;"/>
            </g>
            <g transform="matrix(0,-1,-1,0,365.711,308.207)">
                <path d="M-6.19,-6.19C-8.995,-6.19 -11.269,-3.419 -11.269,-0.001C-11.269,3.418 -8.995,6.19 -6.19,6.19C-3.385,6.19 -1.111,3.418 -1.111,-0.001C-1.111,-3.419 -3.385,-6.19 -6.19,-6.19" style="fill:rgb(33,33,33);fill-rule:nonzero;"/>
            </g>
            <g transform="matrix(0,1,1,0,375.476,310.612)">
                <path d="M2.109,-5.46L5.46,-5.46C5.46,-5.46 6.326,-1.012 3.785,2.109C1.243,-1.012 2.109,-5.46 2.109,-5.46" style="fill:rgb(33,33,33);fill-rule:nonzero;"/>
            </g>
            <g transform="matrix(-1,0,0,1,720.255,28.793)">
                <rect x="358.5" y="282.444" width="3.255" height="6.319" style="fill:rgb(33,33,33);"/>
            </g>
            <g transform="matrix(1,0,0,1,361.755,313.056)">
                <path d="M0,2.681L-282.511,1.341L0,0L0,2.681Z" style="fill:rgb(33,33,33);fill-rule:nonzero;"/>
            </g>
            <g transform="matrix(0,1,1,0,434.289,308.207)">
                <path d="M6.19,-6.19C3.385,-6.19 1.111,-3.419 1.111,-0.001C1.111,3.418 3.385,6.19 6.19,6.19C8.995,6.19 11.269,3.418 11.269,-0.001C11.269,-3.419 8.995,-6.19 6.19,-6.19" style="fill:rgb(33,33,33);fill-rule:nonzero;"/>
            </g>
            <g transform="matrix(0,-1,-1,0,427.875,310.612)">
                <path d="M-5.46,-2.109L-2.109,-2.109C-2.109,-2.109 -1.243,2.339 -3.784,5.46C-6.326,2.339 -5.46,-2.109 -5.46,-2.109" style="fill:rgb(33,33,33);fill-rule:nonzero;"/>
            </g>
            <g transform="matrix(1,0,0,1,0,28.793)">
                <rect x="438.245" y="282.444" width="3.255" height="6.319" style="fill:rgb(33,33,33);"/>
            </g>
            <g transform="matrix(1,0,0,1,438.245,315.737)">
                <path d="M0,-2.681L282.511,-1.341L0,0L0,-2.681Z" style="fill:rgb(33,33,33);fill-rule:nonzero;"/>
            </g>
            <g transform="matrix(0,1,1,0,405.585,313.75)">
                <path d="M0.647,-0.647C0.29,-0.647 0,-0.357 0,-0C0,0.356 0.29,0.647 0.647,0.647C1.003,0.647 1.293,0.356 1.293,-0C1.293,-0.357 1.003,-0.647 0.647,-0.647" style="fill:rgb(33,33,33);fill-rule:nonzero;"/>
            </g>
            <g transform="matrix(0,1,1,0,394.415,313.75)">
                <path d="M0.647,-0.647C0.29,-0.647 0,-0.357 0,-0C0,0.356 0.29,0.647 0.647,0.647C1.003,0.647 1.293,0.356 1.293,-0C1.293,-0.357 1.003,-0.647 0.647,-0.647" style="fill:rgb(33,33,33);fill-rule:nonzero;"/>
            </g>
            <g transform="matrix(-1,0,0,1,400,320.628)">
                <path d="M0,-1.293C-0.357,-1.293 -0.646,-1.004 -0.646,-0.647C-0.646,-0.29 -0.357,0 0,0C0.357,0 0.646,-0.29 0.646,-0.647C0.646,-1.004 0.357,-1.293 0,-1.293" style="fill:rgb(33,33,33);fill-rule:nonzero;"/>
            </g>
            <g transform="matrix(-1,0,0,1,400,309.458)">
                <path d="M0,-1.293C-0.357,-1.293 -0.646,-1.004 -0.646,-0.647C-0.646,-0.29 -0.357,0 0,0C0.357,0 0.646,-0.29 0.646,-0.647C0.646,-1.004 0.357,-1.293 0,-1.293" style="fill:rgb(33,33,33);fill-rule:nonzero;"/>
            </g>
        </g>
    </g>
</svg>
